HIERARCHY
ROOT Hips
{
    OFFSET 0.0 0.0 0.0
    CHANNELS 6 Xposition Yposition Zposition Zrotation Xrotation Yrotation
    JOINT LeftHipJoint
    {
        OFFSET 0.1 0.0 0.0
        CHANNELS 3 Zrotation Xrotation Yrotation
        JOINT LeftUpLeg
        {
            OFFSET 120.8084473229159 0.0 0.0
            CHANNELS 3 Zrotation Xrotation Yrotation
            JOINT LeftLeg
            {
                OFFSET 0.0 0.0 -403.12087985394965
                CHANNELS 3 Zrotation Xrotation Yrotation
                JOINT LeftFoot
                {
                    OFFSET 0.0 0.0 -393.2652215921106
                    CHANNELS 3 Zrotation Xrotation Yrotation
                    End Site
                    {
                        OFFSET 0.0 -0.1 0.0
                    }
                }
            }
        }
    }
    JOINT LowerBack
    {
        OFFSET 0.0 0.0 0.1
        CHANNELS 3 Zrotation Xrotation Yrotation
        JOINT Spine
        {
            OFFSET 0.0 0.0 217.67061262137068
            CHANNELS 3 Zrotation Xrotation Yrotation
            JOINT Spine1
            {
                OFFSET 0.0 0.0 254.27954516000239
                CHANNELS 3 Zrotation Xrotation Yrotation
                JOINT LeftShoulder
                {
                    OFFSET 0.1 0.0 0.0
                    CHANNELS 3 Zrotation Xrotation Yrotation
                    JOINT LeftArm
                    {
                        OFFSET 145.33235039171217 0.0 0.0
                        CHANNELS 3 Zrotation Xrotation Yrotation
                        JOINT LeftForeArm
                        {
                            OFFSET 259.16130896764287 0.0 0.0
                            CHANNELS 3 Zrotation Xrotation Yrotation
                            JOINT LeftHand
                            {
                                OFFSET 230.8008040852208 0.0 0.0
                                CHANNELS 3 Zrotation Xrotation Yrotation
                                End Site
                                {
                                    OFFSET 0.1 0.0 0.0
                                }
                            }
                        }
                    }
                }
                JOINT Neck
                {
                    OFFSET 0.0 0.0 0.1
                    CHANNELS 3 Zrotation Xrotation Yrotation
                    JOINT Neck1
                    {
                        OFFSET 0.0 0.0 107.273737205601
                        CHANNELS 3 Zrotation Xrotation Yrotation
                        End Site
                        {
                            OFFSET 0.0 0.0 116.16136698532317
                        }
                    }
                }
                JOINT RightShoulder
                {
                    OFFSET -0.1 0.0 0.0
                    CHANNELS 3 Zrotation Xrotation Yrotation
                    JOINT RightArm
                    {
                        OFFSET -145.33235039171217 0.0 0.0
                        CHANNELS 3 Zrotation Xrotation Yrotation
                        JOINT RightForeArm
                        {
                            OFFSET -259.16130896764287 0.0 0.0
                            CHANNELS 3 Zrotation Xrotation Yrotation
                            JOINT RightHand
                            {
                                OFFSET -230.8008040852208 0.0 0.0
                                CHANNELS 3 Zrotation Xrotation Yrotation
                                End Site
                                {
                                    OFFSET -0.1 0.0 0.0
                                }
                            }
                        }
                    }
                }
            }
        }
    }
    JOINT RightHipJoint
    {
        OFFSET -0.1 0.0 0.0
        CHANNELS 3 Zrotation Xrotation Yrotation
        JOINT RightUpLeg
        {
            OFFSET -120.8084473229159 0.0 0.0
            CHANNELS 3 Zrotation Xrotation Yrotation
            JOINT RightLeg
            {
                OFFSET 0.0 0.0 -403.12087985394965
                CHANNELS 3 Zrotation Xrotation Yrotation
                JOINT RightFoot
                {
                    OFFSET 0.0 0.0 -393.2652215921106
                    CHANNELS 3 Zrotation Xrotation Yrotation
                    End Site
                    {
                        OFFSET 0.0 -0.1 0.0
                    }
                }
            }
        }
    }
}
MOTION
Frames: 7
Frame Time: 0.03333333333333333
0.0 0.0 793.6212507858463 24.39732162650893 -2.3224264692516927 0.83932249972111 0.0 0.0 0.0 0.5075708027635207 -9.853727074301752 0.022494082850294906 -1.363122273563568 24.934057483713552 0.8188312032318449 0.0 0.0 3.975693351829396e-16 0.0 0.0 0.0 0.36319155307806456 -7.12008768426988 2.786517617171439 6.377037453243804 2.480961687602374e-15 -1.3820859416447823e-16 0.0 0.0 0.0 2.311187445887748 15.091728364002309 49.97725198960426 -27.283169372401296 -4.0502114244453035e-15 -3.5399008619096015e-15 -7.951386703658792e-16 1.3793457181406746e-32 -1.987846675914698e-15 0.0 0.0 0.0 -13.02054482395828 -5.52168693148868 -8.004783488448632 0.0 0.0 0.0 35.23484179782288 -59.07410967760663 -5.384981876122332 102.85542771656067 -2.9901755739052476e-15 -6.452789353924229e-15 -7.951386703658792e-16 0.0 0.0 0.0 0.0 0.0 0.16293566773407292 -3.2502010961539787 -2.931289726051107 -2.3824971514986104 22.12536490508629 1.7250192535651985 -3.1805546814635168e-15 -3.1805546814635168e-15 -3.975693351829397e-16
0.0 0.0 793.6212507858463 24.354475209814208 -2.292143211771855 0.8488009784669724 0.0 0.0 0.0 0.5047377520898528 -9.837796006399795 -0.025842074035626248 -1.3611423266771572 24.63099139531614 0.733208978006556 0.0 0.0 3.975693351829396e-16 0.0 0.0 0.0 0.36238527644358626 -7.132174509489936 2.752176754096568 6.406566012778174 1.1412259558188531e-15 -6.387003257846047e-17 0.0 0.0 0.0 1.0281379848598557 16.18223192968172 50.63420023614619 -27.013540007726853 9.598442459870345e-16 -5.698172054451478e-15 -1.5902773407317584e-15 -4.1380371544220234e-32 2.9817700138720468e-15 0.0 0.0 0.0 -12.936625455328388 -5.528527025660253 -8.006535654985264 0.0 0.0 0.0 36.84653333499324 -59.08392816747591 -3.9397330075682326 102.54725708420756 6.952332774356187e-15 1.4982354299342493e-15 1.987846675914698e-16 0.0 0.0 0.0 0.0 0.0 0.15698881932516423 -3.145259494549425 -2.993856729741495 -2.344823352467259 21.63661523992911 1.691326851186265 0.0 0.0 3.975693351829396e-16
0.0 0.0 793.6212507858463 24.200107413562844 -2.3611193914356883 0.8763614116981522 0.0 0.0 9.939233379573489e-17 0.490632475417084 -9.780148668714348 -0.10395919888300952 -1.3655362516151788 24.60672946766559 0.7378028753132762 0.0 0.0 -3.975693351829396e-16 0.0 0.0 9.939233379573489e-17 0.3523207085189531 -7.091078443232205 2.7294084369540825 6.481435855673247 -1.1233756472914572e-15 1.2582257063313335e-15 -6.3611093629270335e-15 0.0 0.0 -0.34932060539078663 17.32102205283578 51.51974677204611 -26.469881563729476 -4.313656781017894e-15 2.712271361462951e-15 0.0 0.0 9.93923337957349e-16 -6.3611093629270335e-15 0.0 0.0 -12.931758515824242 -5.640926173312826 -8.116294533781348 -6.3611093629270335e-15 0.0 0.0 38.198649765969805 -59.152589305399815 -2.923502247249896 102.15732389207373 -4.949001791041304e-15 -3.996385066455426e-15 0.0 0.0 0.0 0.0 0.0 9.939233379573489e-17 0.14812916217747638 -3.0357309046914818 -3.030012344936853 -2.3041449974529877 21.388616510733478 1.6598220678310072 0.0 0.0 0.0
0.0 0.0 793.6212507858463 24.08904828395398 -2.4595499251986546 1.0027663790010144 0.0 0.0 0.0 0.4475940943756625 -9.49922391852453 -0.3453737215494218 -1.3753906330744106 24.288168226024908 0.7730981977660862 -3.4483642953516864e-34 -9.93923337957349e-17 -3.975693351829396e-16 0.0 0.0 0.0 0.32785750281934606 -7.02354715146336 2.60292924234438 6.500216088209006 -3.031126369419057e-15 9.685452237295354e-16 -6.3611093629270335e-15 0.0 0.0 -1.7831473484105778 18.517537128015228 52.5257820185166 -26.112868228418012 4.102737019561255e-15 1.5745800489326085e-14 0.0 0.0 -1.7890620083232284e-15 -6.3611093629270335e-15 0.0 0.0 -12.93574694018104 -5.5634603779597915 -8.147694189065287 -6.3611093629270335e-15 0.0 0.0 39.52056425451206 -59.215377490118726 -1.794432198813239 101.7137160935058 9.86698781409229e-15 8.03102738041816e-15 7.951386703658792e-16 0.0 0.0 0.0 0.0 0.0 0.12987650154518338 -2.8359407685074465 -3.229036521400363 -2.2633829536140144 20.952898668253418 1.7057575355712884 0.0 0.0 0.0
0.0 0.0 793.6212507858463 23.96376116638992 -2.509419953735114 1.0345166571176463 0.0 0.0 0.0 0.4228932212441941 -9.365327097323881 -0.47665026542057237 -1.373390472353639 24.126283528362624 0.8077576689743671 3.1805546814635168e-15 0.0 0.0 0.0 0.0 0.0 0.3128492779799408 -6.992324066064515 2.624141882713908 6.490836710362391 -5.00765959725936e-16 8.248113409842307e-16 0.0 0.0 0.0 -3.357001068132751 19.776817316285918 53.51609992783387 -26.0113201787411 9.414331610510821e-15 1.6389016081146364e-15 1.5902773407317584e-15 1.5902773407317584e-15 2.3854160110976376e-15 0.0 0.0 0.0 -12.95611290413933 -5.528013331761094 -8.191234846200228 0.0 0.0 0.0 40.683321748266955 -59.354481390287376 -0.7752030231473016 101.34858436492175 3.1417525356728133e-15 -1.387256114205965e-14 0.0 0.0 0.0 0.0 0.0 0.0 0.12328880806433962 -2.808569455525641 -3.251277002271418 -2.2166435582960116 20.84446037437758 1.5865974286020488 -1.1207183959892981e-32 -3.2302508483613835e-15 -3.9756933518293955e-16
0.0 0.0 793.6212507858463 23.86153721767488 -2.4820400269089613 1.089075868785584 0.0 0.0 0.0 0.4003846844351279 -9.278861047720326 -0.6558007660504754 -1.3930405545315079 23.98295456442654 0.879166174673967 3.4483642953516864e-34 -9.93923337957349e-17 3.975693351829396e-16 0.0 0.0 0.0 0.29823312470727115 -6.973615636741445 2.5438860243747827 6.527912856084847 2.354566912398525e-15 2.639379129728841e-16 0.0 0.0 0.0 -5.620985072759371 21.35766010217422 54.89107865549441 -25.976599857490324 -3.783606069702096e-16 1.640388040305487e-15 -7.951386703658792e-16 -1.3793457181406746e-32 1.987846675914698e-15 0.0 0.0 0.0 -12.893426666106762 -5.618336537692633 -8.132717808402267 0.0 0.0 0.0 42.0096477286473 -59.371751373056505 0.5744341448990617 100.99264857501791 0.0 0.0 0.0 0.0 0.0 0.0 0.0 0.0 0.11619393619247849 -2.768000856115377 -3.3076897218155805 -2.183194719394426 20.741778111622224 1.6597235216345922 3.180554681463516e-15 -4.9696166897867425e-17 3.975693351829395e-16
0.0 0.0 793.6212507858463 23.812771655479136 -2.5328197263306134 1.1124687734223973 0.0 0.0 0.0 0.39401203469943086 -9.23844359809363 -0.8017615254300549 -1.4522731484755522 24.084771920809434 0.9665254435331311 0.0 0.0 0.0 0.0 0.0 0.0 0.29311182072856395 -6.9343761350938955 2.5099121658931822 6.466921739776227 -5.682122875702321e-16 -3.6610239285920085e-16 0.0 0.0 0.0 -7.246305054525473 22.52631712449362 56.11297614895274 -25.789150798415648 3.2661381786984645e-15 -9.052057953744424e-16 3.975693351829396e-16 6.551892161168204e-33 1.888454342118963e-15 0.0 0.0 0.0 -12.739670255439085 -5.625236073730805 -8.09759808780493 0.0 0.0 0.0 43.1536013287739 -59.43125119554776 1.8726708270823729 100.99720167215528 -4.90828955321565e-15 -4.046282984284723e-15 0.0 0.0 0.0 0.0 0.0 0.0 0.1118909616795166 -2.6976293462474104 -3.345944451392084 -2.169380646373501 20.5887648961779 1.7077567444173098 -3.1805546814635168e-15 4.969616689786746e-17 -3.975693351829396e-16
